<svg width="68" height="10" viewBox="0 0 68 10" fill="none" xmlns="http://www.w3.org/2000/svg">
<g clip-path="url(#clip0_61_647)">
<path d="M22.9145 4.03637C22.9145 5.93581 22.9145 7.83526 22.9145 9.74867C22.3638 9.74867 21.8417 9.74867 21.291 9.74867C21.291 7.01122 21.291 4.28078 21.291 1.51542C21.8703 1.51542 22.4496 1.50843 23.0289 1.5224C23.1077 1.5224 23.2078 1.65508 23.2578 1.74586C23.9802 2.96793 24.6953 4.19698 25.4106 5.42604C25.7467 6.00565 26.09 6.59224 26.4761 7.16485C26.4761 5.30033 26.4761 3.42883 26.4761 1.53637C27.034 1.53637 27.5632 1.53637 28.1139 1.53637C28.1139 4.25983 28.1139 6.99726 28.1139 9.76263C27.5561 9.76263 26.9982 9.76961 26.4547 9.75565C26.376 9.75565 26.2831 9.62296 26.2258 9.53218C25.3175 7.99587 24.4237 6.45956 23.5153 4.93022C23.3364 4.62994 23.1577 4.32967 22.9789 4.03637C22.9574 4.02939 22.936 4.03637 22.9145 4.03637Z" fill="white"/>
<path d="M7.83837 9.76256C7.48793 9.76256 7.1518 9.76954 6.81564 9.75558C6.76559 9.75558 6.68693 9.65084 6.67262 9.58799C6.6154 9.3366 6.5725 9.07821 6.52242 8.79189C6.45805 8.84078 6.408 8.86871 6.37223 8.91061C5.12066 10.4818 2.40294 10.2165 1.18713 8.92458C0.457637 8.15641 0.107194 7.2486 0.0285236 6.22904C-0.0716027 5 0.114346 3.82682 0.886748 2.80028C1.51611 1.96228 2.37433 1.47346 3.42566 1.34078C4.3697 1.22206 5.3066 1.27793 6.16483 1.73184C7.10173 2.22765 7.66672 2.98882 7.83837 4.05028C7.75254 4.06424 7.68103 4.07821 7.61667 4.07821C7.33774 4.07821 7.05881 4.06424 6.78705 4.08519C6.36508 4.11312 6.07901 4.08519 5.8859 3.59636C5.6356 2.98882 5.01338 2.77234 4.36255 2.73045C3.13244 2.64665 2.18124 3.37989 1.93092 4.58799C1.78073 5.33519 1.76643 6.07541 1.92377 6.82261C2.13832 7.7933 3.01086 8.4986 4.05503 8.53352C5.12781 8.57541 5.94312 7.9958 6.23634 6.99721C6.2578 6.92039 6.27211 6.84358 6.30072 6.71787C5.96458 6.71787 5.64274 6.71787 5.32806 6.71787C5.00623 6.71787 4.69155 6.71787 4.3554 6.71787C4.3554 6.25 4.3554 5.81006 4.3554 5.35613C5.52115 5.35613 6.67262 5.35613 7.83837 5.35613C7.83837 6.80865 7.83837 8.26117 7.83837 9.76256Z" fill="white"/>
<path d="M11.3142 6.55731C11.3142 7.62574 11.3142 8.66624 11.3142 9.73468C10.7421 9.73468 10.1842 9.73468 9.61206 9.73468C9.61206 7.01122 9.61206 4.28077 9.61206 1.52239C9.6979 1.51541 9.79087 1.50842 9.88384 1.50842C11.1426 1.50842 12.4013 1.50842 13.66 1.50842C13.9247 1.50842 14.1964 1.52239 14.461 1.5573C16.1918 1.79474 17.0929 3.65925 16.1489 5.09781C15.9558 5.39809 15.6125 5.60759 15.3264 5.87994C15.305 5.83105 15.305 5.85199 15.3193 5.85898C15.9558 6.15227 16.2347 6.65507 16.2562 7.32546C16.2705 7.77937 16.2776 8.23329 16.2848 8.6872C16.2919 8.99446 16.3205 9.29474 16.5851 9.52518C16.6281 9.56011 16.6352 9.6439 16.6638 9.73468C16.5637 9.74864 16.4993 9.76261 16.4278 9.76261C15.9272 9.76261 15.4265 9.75562 14.9259 9.76959C14.7471 9.77659 14.6541 9.72072 14.6327 9.55312C14.5898 9.23188 14.5397 8.91764 14.5111 8.59642C14.4825 8.19837 14.4968 7.79335 14.4539 7.39529C14.3895 6.86457 14.1392 6.5992 13.6171 6.57127C12.8662 6.52937 12.1081 6.55731 11.3142 6.55731ZM11.3357 2.98887C11.3357 3.70814 11.3357 4.42742 11.3357 5.16764C11.6861 5.16764 12.0151 5.17462 12.3441 5.16764C12.8447 5.16066 13.3454 5.17462 13.8388 5.12574C14.4324 5.06988 14.7257 4.72072 14.74 4.15507C14.7543 3.47072 14.4896 3.04474 13.8817 3.00283C13.045 2.94698 12.1939 2.98887 11.3357 2.98887Z" fill="white"/>
<path d="M29.8019 9.74862C29.8019 6.99723 29.8019 4.28075 29.8019 1.53633C29.8734 1.52935 29.9449 1.51538 30.0092 1.51538C31.1821 1.51538 32.348 1.51538 33.5209 1.51538C34.5292 1.52236 35.4232 1.80169 36.074 2.60477C36.5103 3.14247 36.7535 3.77097 36.8536 4.44834C37.0396 5.72627 36.9538 6.97627 36.31 8.13549C35.745 9.16901 34.8582 9.72768 33.6567 9.7556C32.4338 9.77655 31.2107 9.76258 29.9879 9.76258C29.9306 9.76258 29.8805 9.7556 29.8019 9.74862ZM31.5182 8.33103C32.0762 8.33103 32.6196 8.33103 33.1632 8.33103C33.9285 8.32405 34.4863 7.97488 34.7867 7.29751C35.2731 6.20114 35.2445 5.07682 34.8868 3.94555C34.7438 3.48466 34.422 3.1774 33.9499 3.05868C33.1489 2.85616 32.3407 2.97488 31.5182 2.95393C31.5182 4.74862 31.5182 6.51538 31.5182 8.33103Z" fill="white"/>
<path d="M37.8762 7.23462C38.4342 7.23462 38.9776 7.23462 39.514 7.23462C39.5283 7.25556 39.5499 7.26254 39.5499 7.27653C39.7429 8.14941 40.0719 8.47764 40.9946 8.54747C41.4451 8.58238 41.917 8.49858 42.3678 8.42177C42.6466 8.3729 42.8683 8.18434 42.9898 7.92595C43.2259 7.43714 43.0613 6.96227 42.5465 6.76675C42.1173 6.60614 41.6597 6.50836 41.2162 6.38266C40.5368 6.19412 39.8503 6.04747 39.1922 5.80306C38.4485 5.52373 38.0765 4.93016 38.0193 4.16199C37.9049 2.73741 38.6202 1.74579 40.0433 1.40361C41.1233 1.14524 42.1889 1.19412 43.1901 1.73881C44.0555 2.22066 44.4774 2.96088 44.5133 3.95249C44.4132 3.95949 44.3273 3.96647 44.2415 3.96647C43.8768 3.96647 43.5048 3.95249 43.1401 3.97345C42.9042 3.98741 42.804 3.93154 42.7611 3.68016C42.6896 3.26116 42.3964 2.98182 41.9886 2.84216C41.4665 2.6606 40.9301 2.63266 40.408 2.80725C40.1648 2.89104 39.9003 3.05864 39.7572 3.26116C39.4211 3.72903 39.6643 4.28769 40.2579 4.47625C40.7441 4.62988 41.2378 4.73462 41.7312 4.86032C42.2032 4.97903 42.6896 5.08378 43.1544 5.23043C44.7779 5.73323 45.3286 7.55584 44.2629 8.86171C43.9554 9.2388 43.5763 9.5321 43.1115 9.69273C41.8455 10.1187 40.5797 10.1117 39.3496 9.57401C38.384 9.15501 37.812 8.22625 37.8762 7.23462Z" fill="white"/>
<path d="M58.488 3.67317C57.9659 3.67317 57.4725 3.68015 56.9717 3.66619C56.9288 3.66619 56.8716 3.58239 56.8502 3.52652C56.7285 3.15641 56.4783 2.93295 56.085 2.88406C55.6415 2.82821 55.2268 2.93993 55.0193 3.32401C54.8192 3.69412 54.719 4.11312 54.5973 4.51815C54.5473 4.69971 54.5473 4.88826 54.5258 5.09776C54.583 5.08378 54.6116 5.08378 54.6332 5.06982C55.3912 4.39943 56.2637 4.35054 57.1577 4.69971C58.0804 5.06284 58.5523 5.80306 58.6454 6.7458C58.7526 7.77932 58.488 8.71508 57.6512 9.41339C57.3866 9.63686 57.0219 9.80447 56.6786 9.8743C54.9763 10.2165 53.6962 9.67178 53.1885 7.91899C52.7522 6.4106 52.7808 4.8673 53.3315 3.38686C54.0825 1.37569 56.0634 1.25697 57.3437 1.90641C58.0445 2.26256 58.3949 2.8701 58.488 3.67317ZM57.0433 7.25558C57.0076 7.03212 56.9933 6.8296 56.9431 6.64106C56.8073 6.13826 56.3711 5.80306 55.8633 5.77514C55.3269 5.74719 54.8548 6.03351 54.6761 6.52932C54.5115 6.99719 54.5115 7.47206 54.7047 7.93295C54.9121 8.42876 55.3626 8.7081 55.8776 8.69413C56.3781 8.68015 56.7501 8.4148 56.9218 7.90502C56.9933 7.68854 57.0076 7.4581 57.0433 7.25558Z" fill="#C9250C"/>
<path d="M65.2465 5.78209C65.175 6.68992 65.1178 7.58377 64.7744 8.43573C64.3954 9.39244 63.6803 9.89522 62.6361 9.9441C62.2855 9.95807 61.9208 9.9441 61.5704 9.88125C60.8338 9.74857 60.3189 9.32959 59.997 8.66618C59.6681 7.98181 59.5464 7.25557 59.4964 6.51533C59.4249 5.4469 59.4749 4.39244 59.8112 3.35892C60.2402 2.03909 61.1269 1.51533 62.5789 1.60612C63.9592 1.6969 64.6958 2.38125 64.982 3.78488C65.1105 4.44829 65.1607 5.11868 65.2465 5.78209ZM63.5945 5.78209C63.4943 5.05584 63.4155 4.32959 63.287 3.61031C63.2154 3.21925 62.9364 2.97483 62.5144 2.91197C61.8779 2.81421 61.456 3.12846 61.2986 3.84075C61.084 4.81142 61.0913 5.79607 61.1699 6.7807C61.1985 7.17175 61.27 7.56283 61.3774 7.93992C61.5205 8.4497 61.8709 8.68712 62.3786 8.67316C62.8505 8.66618 63.1939 8.42175 63.294 7.91197C63.4228 7.21366 63.4943 6.50136 63.5945 5.78209Z" fill="#C9250C"/>
<path d="M46.344 7.2975C46.8947 7.2975 47.4026 7.2975 47.8889 7.2975C47.9533 7.5489 47.9819 7.79331 48.0748 8.01677C48.2751 8.49861 48.7041 8.71509 49.2907 8.66622C49.8127 8.61733 50.2204 8.29611 50.3421 7.82822C50.5708 6.94135 50.1345 6.31985 49.2119 6.22209C48.9975 6.20113 48.7829 6.18716 48.5326 6.16622C48.5326 5.84498 48.5254 5.52375 48.5397 5.20253C48.5397 5.15364 48.6469 5.07683 48.7114 5.06985C48.9187 5.02794 49.1405 5.02794 49.3479 4.98605C49.9844 4.86035 50.2705 4.43437 50.1774 3.76398C50.0989 3.20533 49.6626 2.86314 49.069 2.89107C48.4611 2.91901 48.1034 3.24024 48.0319 3.8827C48.0033 4.14805 47.9104 4.23885 47.6386 4.21788C47.2666 4.19694 46.8947 4.2109 46.5229 4.2109C46.4727 2.93996 47.2453 1.78074 48.6828 1.63409C49.3263 1.57124 49.9701 1.61314 50.5708 1.8855C51.7866 2.43018 52.2158 3.95253 51.4362 4.95811C51.2931 5.13968 51.1573 5.32822 51.0213 5.50979C50.9856 5.48185 50.95 5.45392 50.9214 5.426C51.1215 5.58661 51.3504 5.72627 51.522 5.91481C52.1942 6.61314 52.2514 7.84918 51.6865 8.74303C51.2788 9.3855 50.7068 9.7975 49.9486 9.88129C49.4408 9.94414 48.9116 9.95811 48.4039 9.88129C47.2167 9.70672 46.5372 8.95253 46.3799 7.73744C46.3726 7.59777 46.3583 7.46509 46.344 7.2975Z" fill="#C9250C"/>
<path d="M17.9154 1.51538C18.037 1.51538 18.13 1.51538 18.2301 1.51538C18.695 1.51538 19.1598 1.51538 19.639 1.51538C19.639 4.26677 19.639 7.00421 19.639 9.74862C19.0597 9.74862 18.4947 9.74862 17.9154 9.74862C17.9154 7.00421 17.9154 4.28075 17.9154 1.51538Z" fill="white"/>
<path d="M68 1.41764C68 2.46512 67.2131 3.05869 66.2262 2.75842C66.2191 2.75842 66.2119 2.75143 66.1976 2.75143C65.604 2.5559 65.2751 1.87155 65.3966 1.09641C65.5111 0.419033 65.9616 0.0140057 66.6195 3.91884e-05C67.5065 -0.0139273 68.007 0.488866 68 1.41764ZM65.9117 1.3897C65.9546 1.57825 65.9832 1.78077 66.0545 1.96232C66.1619 2.22071 66.3836 2.34642 66.6697 2.3534C66.9486 2.36736 67.1845 2.25562 67.3062 2.00423C67.5065 1.61317 67.5065 1.21512 67.3205 0.817079C67.1918 0.551716 66.9629 0.439983 66.6697 0.446966C66.3836 0.453949 66.169 0.586631 66.0618 0.838027C65.9832 1.01261 65.9616 1.20116 65.9117 1.3897Z" fill="#C9250C"/>
</g>
<defs>
<clipPath id="clip0_61_647">
<rect width="68" height="10" fill="white"/>
</clipPath>
</defs>
</svg>
