<svg width="87" height="22" viewBox="0 0 87 22" fill="none" xmlns="http://www.w3.org/2000/svg">
<mask id="mask0_49_135" style="mask-type:luminance" maskUnits="userSpaceOnUse" x="0" y="0" width="87" height="22">
<path d="M86.1714 0H0V21.6687H86.1714V0Z" fill="white"/>
</mask>
<g mask="url(#mask0_49_135)">
<path d="M24.6864 16.9773L24.6726 21.1678L37.6216 21.2086L37.6354 17.0189L29.2251 16.9921L24.6864 16.9773Z" fill="white"/>
<path d="M76.9136 17.1429L76.9009 21.3327L86.1049 21.3601L86.1176 17.1704L76.9136 17.1429Z" fill="white"/>
<path d="M40.7212 0.615845L40.69 10.9178L45.2296 10.9315L45.2604 0.629589L40.7212 0.615845Z" fill="white"/>
<path d="M40.6882 10.9159L40.6573 21.2178L45.1969 21.2316L45.2278 10.9296L40.6882 10.9159Z" fill="white"/>
<path d="M24.6201 0.536743V16.9491H29.1594V0.536743H24.6201Z" fill="white"/>
<path d="M53.1444 0.6556L48.3188 0.641113L56.368 21.2688L61.1936 21.2833L53.1444 0.6556Z" fill="white"/>
<path d="M76.6736 8.73529V12.9246H85.3666V8.73529H76.6736Z" fill="white"/>
<path d="M76.967 0.732483L76.9544 4.9222L86.1584 4.94968L86.171 0.759968L76.967 0.732483Z" fill="white"/>
<path d="M72.4315 0.71759L72.4055 8.74899L76.944 8.76348L76.9563 4.92216L76.97 0.732448L72.4315 0.71759Z" fill="white"/>
<path d="M72.3651 21.3196L76.9047 21.3341L76.9173 17.1444L76.9314 12.954L76.944 8.76424L72.4055 8.74976L72.3651 21.3196Z" fill="white"/>
<path d="M62.2648 18.5648L69.374 0.681606L64.5484 0.666748L59.871 12.4362L62.2648 18.5648Z" fill="white"/>
<path d="M5.52345 14.5833C4.62593 13.3327 4.20191 11.8039 4.32704 10.2695C4.45218 8.73513 5.11834 7.2951 6.2067 6.20645C7.29502 5.11742 8.73479 4.4507 10.2691 4.32516C11.8034 4.19924 13.3324 4.62267 14.5835 5.52004L17.6667 2.43682C15.5895 0.73493 12.9536 -0.134212 10.2715 -0.000868642C7.58934 0.132103 5.05248 1.2579 3.154 3.15702C1.25548 5.05613 0.130905 7.59373 -0.00117522 10.2758C-0.133255 12.9579 0.73663 15.5936 2.43937 17.6702L5.52345 14.5833Z" fill="white"/>
<path d="M16.1322 7.11248C17.0035 8.36308 17.4072 9.88037 17.2725 11.3988C17.1377 12.9172 16.4732 14.3394 15.3952 15.4173C14.3172 16.4948 12.8945 17.1589 11.3762 17.2933C9.85781 17.4278 8.34064 17.0237 7.09022 16.1519L3.99927 19.2456C6.07726 20.9326 8.70672 21.7895 11.3797 21.6513C14.0528 21.5128 16.5797 20.3888 18.4724 18.4964C20.3652 16.6036 21.4895 14.0771 21.6281 11.404C21.7668 8.7308 20.9099 6.10146 19.2232 4.02332L16.1322 7.11248Z" fill="white"/>
</g>
</svg>
