<svg width="104" height="104" viewBox="0 0 104 104" fill="none" xmlns="http://www.w3.org/2000/svg">
<path d="M11.4969 47.3471V44.7572H23.6989V47.3471H19.1504V59.6143H16.0454V47.3471H11.4969ZM27.3116 59.8245C26.6007 59.8245 25.9671 59.7012 25.411 59.4546C24.8548 59.2031 24.4147 58.8332 24.0907 58.3448C23.7714 57.8515 23.6118 57.2372 23.6118 56.5021C23.6118 55.8829 23.7255 55.3633 23.9528 54.9425C24.1801 54.5216 24.4896 54.1833 24.8814 53.9266C25.2731 53.6703 25.7181 53.4772 26.2162 53.3464C26.7192 53.2157 27.2463 53.124 27.7977 53.0708C28.4457 53.0032 28.9681 52.9401 29.3646 52.8822C29.7612 52.8194 30.049 52.7273 30.2279 52.6066C30.4069 52.4855 30.4963 52.3068 30.4963 52.0695V52.026C30.4963 51.5666 30.3512 51.2111 30.0611 50.9597C29.7757 50.7082 29.3695 50.5827 28.8423 50.5827C28.2861 50.5827 27.8436 50.706 27.5147 50.9526C27.1859 51.1944 26.9683 51.499 26.8618 51.8667L24.0036 51.6345C24.1487 50.9574 24.434 50.372 24.8596 49.8788C25.2852 49.3807 25.8341 48.9985 26.5064 48.7326C27.1835 48.4618 27.967 48.3262 28.8568 48.3262C29.4759 48.3262 30.0683 48.399 30.6342 48.5439C31.2048 48.6891 31.7103 48.9138 32.1504 49.2188C32.5953 49.5233 32.9459 49.9152 33.2022 50.394C33.4586 50.8679 33.5867 51.4362 33.5867 52.0988V59.6143H30.656V58.0692H30.5689C30.3899 58.4172 30.1506 58.7244 29.8507 58.9903C29.5508 59.2514 29.1905 59.4572 28.7698 59.6069C28.349 59.7521 27.863 59.8245 27.3116 59.8245ZM28.1967 57.6918C28.6513 57.6918 29.0527 57.6023 29.4009 57.4236C29.7491 57.2398 30.0224 56.9931 30.2207 56.6834C30.4189 56.374 30.5181 56.0233 30.5181 55.6315V54.4492C30.4214 54.512 30.2884 54.5699 30.1191 54.623C29.9547 54.6717 29.7685 54.7174 29.5605 54.7612C29.3525 54.7999 29.1446 54.8359 28.9366 54.8701C28.7287 54.899 28.54 54.9254 28.3708 54.9495C28.0081 55.003 27.6913 55.0873 27.4204 55.2036C27.1496 55.3195 26.9392 55.477 26.7893 55.6753C26.6394 55.8685 26.5644 56.1103 26.5644 56.4007C26.5644 56.8212 26.7168 57.1428 27.0215 57.3653C27.331 57.583 27.7227 57.6918 28.1967 57.6918ZM41.0191 59.832C39.8777 59.832 38.8956 59.5902 38.0737 59.1066C37.2562 58.6181 36.6276 57.941 36.1875 57.0752C35.7522 56.2094 35.5346 55.2133 35.5346 54.0863C35.5346 52.9449 35.7546 51.9439 36.1947 51.083C36.6397 50.2175 37.2706 49.5426 38.0882 49.059C38.9053 48.5706 39.8777 48.3262 41.0043 48.3262C41.9767 48.3262 42.8276 48.503 43.5578 48.8559C44.2884 49.2091 44.8664 49.7046 45.2917 50.3431C45.7173 50.9816 45.952 51.7311 45.9955 52.5921H43.0791C42.997 52.0357 42.7793 51.5885 42.4264 51.2497C42.078 50.9065 41.6212 50.7349 41.0551 50.7349C40.5764 50.7349 40.1581 50.8653 39.8001 51.1264C39.4472 51.3831 39.1716 51.7578 38.9733 52.2511C38.7749 52.7444 38.6758 53.3416 38.6758 54.0429C38.6758 54.7538 38.7723 55.3585 38.9658 55.8566C39.1642 56.3546 39.4424 56.7343 39.8001 56.9954C40.1581 57.2565 40.5764 57.3872 41.0551 57.3872C41.4084 57.3872 41.7252 57.3148 42.0056 57.1696C42.2909 57.0243 42.5256 56.8141 42.7091 56.5385C42.8978 56.2581 43.0211 55.9219 43.0791 55.5301H45.9955C45.9472 56.3814 45.7151 57.1309 45.2991 57.7791C44.8879 58.422 44.3196 58.9253 43.5942 59.2878C42.8688 59.6507 42.0104 59.832 41.0191 59.832ZM53.901 48.4714V50.7929H47.1908V48.4714H53.901ZM48.714 45.8016H51.8046V56.1901C51.8046 56.4754 51.8481 56.6979 51.935 56.8576C52.0223 57.0125 52.143 57.1213 52.2979 57.184C52.4573 57.2468 52.6411 57.2784 52.8491 57.2784C52.9943 57.2784 53.1392 57.2661 53.2844 57.242C53.4296 57.213 53.5407 57.1915 53.618 57.1766L54.1042 59.4765C53.9493 59.5248 53.7316 59.5805 53.4512 59.6433C53.1708 59.7109 52.8298 59.7521 52.4283 59.7666C51.6836 59.7956 51.0306 59.6964 50.4697 59.4691C49.9133 59.2418 49.4806 58.8889 49.1712 58.4101C48.8615 57.9314 48.7092 57.3267 48.714 56.5964V45.8016ZM55.9141 59.6143V48.4714H59.0044V59.6143H55.9141ZM57.4667 47.0351C57.0073 47.0351 56.6132 46.8828 56.2841 46.5779C55.9602 46.2685 55.7982 45.8986 55.7982 45.4681C55.7982 45.0424 55.9602 44.6773 56.2841 44.3727C56.6132 44.0633 57.0073 43.9084 57.4667 43.9084C57.9262 43.9084 58.3176 44.0633 58.6419 44.3727C58.9706 44.6773 59.1352 45.0424 59.1352 45.4681C59.1352 45.8986 58.9706 46.2685 58.6419 46.5779C58.3176 46.8828 57.9262 47.0351 57.4667 47.0351ZM64.0629 48.4714L66.1084 52.367L68.2051 48.4714H71.3752L68.1471 54.0429L71.4621 59.6143H68.3065L66.1084 55.7622L63.9467 59.6143H60.7546L64.0629 54.0429L60.8708 48.4714H64.0629Z" fill="white"/>
<path d="M75.8294 59.6143H72.4635L77.5922 44.7571H81.6404L86.762 59.6143H83.3958L79.6744 48.1524H79.5582L75.8294 59.6143ZM75.6192 53.7743H83.57V56.2265H75.6192V53.7743ZM91.6912 44.7571V59.6143H88.5501V44.7571H91.6912Z" fill="#FCB03C"/>
</svg>
