<svg width="87" height="36" viewBox="0 0 87 36" fill="none" xmlns="http://www.w3.org/2000/svg">
<mask id="mask0_49_159" style="mask-type:luminance" maskUnits="userSpaceOnUse" x="0" y="0" width="87" height="36">
<path d="M86.1714 0H0V35.9048H86.1714V0Z" fill="white"/>
</mask>
<g mask="url(#mask0_49_159)">
<path d="M18.0215 24.3488L16.7557 27.0454C16.6308 27.3102 16.5034 27.5735 16.376 27.8376C16.069 28.4728 15.7622 29.1079 15.4913 29.7575C15.2391 30.3615 14.8853 30.5372 14.204 30.6378C12.4549 30.8974 11.6819 30.1438 10.9842 28.6172C8.40175 22.9652 5.74775 17.347 3.09359 11.7284C2.15581 9.7431 1.21773 7.75707 0.283031 5.7703C-0.165691 4.8187 -0.162423 4.81536 0.895555 4.81202C1.35189 4.81202 1.80797 4.81499 2.26382 4.81833C3.44088 4.82613 4.61667 4.83393 5.79247 4.78936C6.50327 4.7667 6.81115 5.02633 7.09288 5.6403C8.69303 9.1295 10.319 12.6061 11.9446 16.0819C12.3252 16.8957 12.7068 17.7117 13.0871 18.5255C13.1638 18.6927 13.253 18.8539 13.3619 19.0511C13.4203 19.157 13.4845 19.2732 13.5555 19.4058C14.1201 18.2016 14.681 17.0079 15.2384 15.8215C16.8441 12.4044 18.421 9.04816 19.9722 5.68265C20.267 5.04267 20.5913 4.76001 21.3381 4.78936C22.9693 4.85436 24.6039 4.85436 26.2351 4.7927C27.1261 4.75704 27.1095 5.02336 26.7919 5.69899V5.70196C23.8585 11.9141 20.9402 18.1311 18.0215 24.3488Z" fill="#0048CE"/>
<path d="M42.7373 9.83371C42.6816 8.47577 42.6849 7.11486 42.7373 5.76063C42.76 5.10766 42.5408 4.96168 41.915 4.968C39.7191 4.98694 37.5243 4.98546 35.3292 4.9836C34.1584 4.98286 32.9877 4.98211 31.8166 4.98434C31.5298 4.98434 31.2286 4.95908 30.9266 4.9342C30.1964 4.87366 29.4628 4.81274 28.9276 5.10431C28.3671 5.41186 28.124 6.1198 27.8819 6.82477C27.7788 7.12526 27.6759 7.425 27.5485 7.69317C27.4932 7.8098 27.437 7.92606 27.381 8.04194C26.9523 8.9278 26.5302 9.79954 26.5592 10.8797C26.6203 13.0793 26.609 15.2789 26.5978 17.4796C26.5932 18.3498 26.5887 19.2205 26.5887 20.0911C26.5887 20.9587 26.5899 21.8264 26.591 22.6941C26.5942 25.1232 26.5973 27.5523 26.5757 29.9819C26.569 30.6181 26.7557 30.7905 27.3946 30.7871C32.2326 30.7645 37.0671 30.7645 41.9053 30.7871C42.5178 30.7905 42.7633 30.6671 42.7373 30.0012C42.6816 28.7116 42.6849 27.4157 42.734 26.1227C42.76 25.4605 42.5798 25.2395 41.8789 25.2525C40.5474 25.2747 39.2143 25.2725 37.8816 25.2703C36.6971 25.2684 35.5126 25.2666 34.3289 25.2814C33.6704 25.2881 33.3951 25.1321 33.4345 24.4275C33.4902 23.3946 33.4936 22.3549 33.4345 21.3253C33.3922 20.6077 33.677 20.4777 34.3322 20.4907C35.4098 20.5101 36.4884 20.5078 37.5666 20.5052C38.6453 20.503 39.7235 20.5004 40.801 20.5201C41.4663 20.5297 41.7218 20.3704 41.6921 19.6688C41.6368 18.3469 41.6297 17.0186 41.6921 15.6963C41.7281 14.9364 41.4466 14.7804 40.739 14.7934C39.6006 14.8157 38.4618 14.8127 37.3226 14.8097C36.3056 14.8068 35.2883 14.8042 34.2698 14.8194C33.6377 14.8294 33.3922 14.6604 33.4345 14.0041C33.4902 13.1368 33.4902 12.2569 33.4345 11.3896C33.3922 10.73 33.6444 10.5873 34.2635 10.5937C35.5375 10.61 36.8115 10.6085 38.0859 10.6067C39.3599 10.6052 40.6343 10.6033 41.9086 10.6197C42.5274 10.6263 42.7633 10.493 42.7373 9.83371Z" fill="#0048CE"/>
<path d="M80.4582 31.1155C82.0895 31.0601 83.7238 31.0698 85.3551 31.1155C86.1901 31.1377 86.3639 31.0018 85.9709 30.1795C85.5601 29.3248 85.1493 28.4701 84.7385 27.6155L84.7237 27.585C81.4818 20.8406 78.2404 14.0973 75.1222 7.3002C74.4017 5.72794 73.596 5.06532 71.886 5.30266C71.2442 5.39032 70.9329 5.55597 70.671 6.13392C69.9999 7.62037 69.2945 9.0942 68.5896 10.5673L68.5884 10.5695C68.2928 11.1876 67.9964 11.8067 67.7033 12.4255C67.1677 13.561 66.6329 14.6965 66.098 15.8319L66.0861 15.8564C63.823 20.6594 61.5595 25.4623 59.2819 30.2578C58.9837 30.8878 58.9577 31.1411 59.796 31.1155C61.4603 31.0631 63.1273 31.0568 64.7913 31.1155C65.5349 31.1444 65.8659 30.8618 66.1637 30.2188C67.7668 26.7319 69.3959 23.2579 71.0428 19.746L71.0469 19.7379C71.5691 18.6239 72.094 17.5052 72.6199 16.382C72.6767 16.4841 72.7221 16.5633 72.7596 16.6286C72.8175 16.7289 72.8565 16.7969 72.8885 16.866C73.4118 17.9817 73.9363 19.0975 74.4604 20.2133C76.0326 23.5587 77.6045 26.9046 79.1545 30.2612C79.4364 30.8685 79.7439 31.1444 80.4582 31.1155Z" fill="#0048CE"/>
<path fill-rule="evenodd" clip-rule="evenodd" d="M65.1385 13.6338C64.47 15.0289 63.8125 16.4295 63.1551 17.8306C62.4977 19.2312 61.8399 20.6319 61.1717 22.027C60.71 22.9923 59.7729 23.2401 58.8644 23.48C58.7095 23.5209 58.555 23.5617 58.4038 23.6055C56.8222 24.0654 55.1947 24.0201 53.573 23.9751C53.2703 23.9666 52.9672 23.9584 52.6652 23.9532C51.925 23.9435 51.7218 24.1482 51.7448 24.8725C51.7764 25.8423 51.7723 26.8136 51.7678 27.7841C51.7645 28.527 51.7615 29.2691 51.7742 30.0108C51.7875 30.5761 51.6694 30.8064 51.0306 30.7905C49.2685 30.7451 47.4998 30.7418 45.7373 30.7905C45.0595 30.8098 44.9284 30.5695 44.9317 29.9622C44.9484 27.0023 44.9462 24.0405 44.9436 21.0783C44.9425 20.0008 44.9414 18.9211 44.9414 17.8436C44.9414 16.8325 44.9425 15.8256 44.9436 14.8213V14.8161C44.9469 11.8082 44.9495 8.82306 44.9254 5.82229C44.9221 5.13366 45.1282 4.96169 45.8031 4.968C47.6012 4.98509 49.3981 4.98249 51.1955 4.97989C52.8294 4.97729 54.4633 4.97506 56.098 4.98732C60.4415 5.01666 64.3556 8.21949 65.2826 12.4419C65.3774 12.8739 65.3317 13.2278 65.1385 13.6338ZM52.4557 10.165C52.4557 8.66 53.2131 7.90749 54.7289 7.90749C55.7945 7.90749 56.3271 8.43157 56.3271 9.47974C56.3271 9.6948 56.3312 9.90986 56.3349 10.1249C56.3442 10.6208 56.3531 11.1163 56.3141 11.6103C56.2618 12.2796 56.5437 12.4352 57.1591 12.4062C57.6472 12.3851 58.1367 12.3899 58.627 12.3947C59.1169 12.3995 59.6076 12.4044 60.0975 12.3836C60.6706 12.3605 60.8378 12.5719 60.8147 13.1108C60.7787 13.9491 60.7787 14.7901 60.8147 15.6284C60.8378 16.148 60.6379 16.294 60.1365 16.278C59.6143 16.2617 59.0917 16.265 58.5694 16.268C58.0468 16.2713 57.5246 16.2747 57.002 16.2583C56.4909 16.2453 56.3074 16.424 56.3208 16.9276C56.3338 17.4439 56.3305 17.9602 56.3271 18.4769C56.3242 18.9931 56.3208 19.5098 56.3338 20.0261C56.3472 20.5361 56.2354 20.8057 55.6396 20.7764C54.7942 20.7344 53.9426 20.7407 53.0942 20.7764C52.5571 20.7961 52.4327 20.5621 52.4457 20.0848C52.4587 19.5807 52.4557 19.0771 52.4531 18.5731C52.4498 18.0441 52.4472 17.5149 52.4621 16.9859C52.4788 16.4437 52.2982 16.242 51.7348 16.2617C51.2538 16.2787 50.7728 16.2743 50.2914 16.2698C49.7603 16.2654 49.2295 16.2605 48.6987 16.2843C48.1189 16.3103 47.9748 16.096 48.0008 15.5634C48.0402 14.7254 48.0369 13.8841 48.0008 13.0458C47.9778 12.5329 48.1613 12.3706 48.6724 12.3899C49.0717 12.4036 49.4713 12.3969 49.871 12.3906C50.4188 12.3817 50.9652 12.3728 51.509 12.4159C52.3246 12.4809 52.5408 12.1559 52.4587 11.4286C52.4268 11.1397 52.4346 10.8477 52.4424 10.5561C52.4457 10.4276 52.449 10.2995 52.449 10.1713L52.4557 10.165Z" fill="#0048CE"/>
</g>
</svg>
