<svg width="142" height="48" viewBox="0 0 142 48" fill="none" xmlns="http://www.w3.org/2000/svg">
<path d="M22.0832 29.025C19.3613 25.111 20.2472 19.6763 24.0475 16.873C26.9877 14.7044 30.9421 14.7044 33.8823 16.873L37.9009 12.7341C31.8794 7.66967 22.9947 8.58207 18.0774 14.7969C13.8405 20.1391 13.8405 27.8085 18.0774 33.1506L22.096 29.0118L22.0832 29.025Z" fill="white"/>
<path d="M35.898 19.0148C38.5685 22.9685 37.6185 28.39 33.7924 31.1404C30.8908 33.2297 27.0262 33.2165 24.1246 31.1404L20.0931 35.2925C26.1275 40.3437 35.0121 39.4049 39.9166 33.1768C44.1279 27.8479 44.1279 20.2049 39.9166 14.876L35.8852 19.0148H35.898Z" fill="white"/>
<path d="M42.6385 35.3457C42.6385 34.9225 42.7156 34.5258 42.8697 34.1424C43.0237 33.7589 43.242 33.4283 43.5116 33.1506C43.7812 32.873 44.1022 32.6482 44.4745 32.4895C44.8469 32.3308 45.232 32.2515 45.6429 32.2515C46.0537 32.2515 46.4389 32.3308 46.8112 32.4895C47.1836 32.6482 47.5046 32.873 47.7742 33.1506C48.0438 33.4283 48.2621 33.7589 48.4161 34.1424C48.5702 34.5258 48.6472 34.9225 48.6472 35.3457C48.6472 35.7688 48.5702 36.1655 48.4161 36.549C48.2621 36.9325 48.0438 37.263 47.7742 37.5407C47.5046 37.8184 47.1836 38.0432 46.8112 38.2019C46.4389 38.3606 46.0537 38.4399 45.6429 38.4399C45.232 38.4399 44.8469 38.3606 44.4745 38.2019C44.1022 38.0432 43.7812 37.8184 43.5116 37.5407C43.242 37.263 43.0237 36.9325 42.8697 36.549C42.7156 36.1655 42.6385 35.7688 42.6385 35.3457Z" fill="white"/>
<path d="M58.79 9.73242V37.8845H52.8327V9.73242H58.79Z" fill="white"/>
<path d="M76.8931 20.4826H82.889V37.8842H76.8931V35.9537C75.6221 37.6065 73.9016 38.4264 71.719 38.4264C69.5363 38.4264 69.3566 38.1884 68.3295 37.7256C67.3023 37.2627 66.4036 36.6148 65.6333 35.7818C64.8629 34.9487 64.2723 33.957 63.8358 32.833C63.4121 31.709 63.1938 30.466 63.1938 29.1305C63.1938 27.795 63.3993 26.7107 63.823 25.5867C64.2338 24.4627 64.8244 23.4842 65.5691 22.6512C66.3137 21.8181 67.1996 21.157 68.2396 20.6677C69.2667 20.1784 70.4094 19.9404 71.6676 19.9404C73.7732 19.9404 75.5193 20.6941 76.906 22.2148V20.4826H76.8931ZM69.3823 29.1305C69.3823 29.6991 69.485 30.228 69.6776 30.7041C69.8702 31.1933 70.1398 31.6165 70.4864 31.9735C70.8202 32.3305 71.2311 32.6214 71.7061 32.8198C72.1812 33.0181 72.6948 33.1239 73.234 33.1239C73.7732 33.1239 74.2611 33.0181 74.7362 32.8198C75.2112 32.6214 75.6092 32.3305 75.9559 31.9735C76.2897 31.6165 76.5721 31.1933 76.7776 30.7173C76.983 30.2413 77.0857 29.7388 77.0857 29.1966C77.0857 28.6545 76.983 28.1388 76.7776 27.6495C76.5721 27.1603 76.2897 26.7371 75.9559 26.3801C75.6092 26.0231 75.2112 25.7322 74.7362 25.5338C74.2611 25.3355 73.7604 25.2297 73.234 25.2297C72.7076 25.2297 72.1683 25.3355 71.7061 25.5338C71.2311 25.7322 70.8331 26.0231 70.4864 26.3801C70.1398 26.7371 69.883 27.1603 69.6776 27.6231C69.485 28.0859 69.3823 28.5884 69.3823 29.1305Z" fill="white"/>
<path d="M93.892 9.73242V22.2151C95.2915 20.6944 97.0504 19.9407 99.156 19.9407C101.262 19.9407 101.557 20.1787 102.597 20.668C103.637 21.1572 104.523 21.8051 105.267 22.6382C105.999 23.458 106.577 24.4366 107.001 25.5605C107.412 26.6845 107.63 27.8746 107.63 29.144C107.63 30.4134 107.412 31.6432 106.988 32.7671C106.564 33.9043 105.961 34.8828 105.19 35.7159C104.42 36.549 103.521 37.2101 102.469 37.6994C101.429 38.1886 100.299 38.4266 99.0918 38.4266C96.8964 38.4266 95.1631 37.6068 93.892 35.9539V37.8845H87.9347V9.73242H93.892ZM101.39 29.2366C101.39 28.6944 101.287 28.1787 101.095 27.6894C100.902 27.2002 100.62 26.7771 100.273 26.42C99.9264 26.063 99.5155 25.7721 99.0533 25.5605C98.5911 25.349 98.0904 25.2432 97.5383 25.2432C96.9862 25.2432 96.5112 25.349 96.0618 25.5473C95.5996 25.7456 95.2016 26.0366 94.8549 26.3936C94.5083 26.7506 94.2387 27.1737 94.0332 27.663C93.8278 28.1523 93.7251 28.668 93.7251 29.2101C93.7251 29.7523 93.8278 30.268 94.0204 30.7308C94.213 31.2068 94.4955 31.6167 94.8421 31.9737C95.1888 32.3308 95.5996 32.6085 96.0747 32.82C96.5497 33.0316 97.0504 33.1374 97.5768 33.1374C98.1032 33.1374 98.6039 33.0316 99.0533 32.8332C99.5027 32.6349 99.9135 32.344 100.26 31.987C100.594 31.6299 100.876 31.2068 101.082 30.7308C101.287 30.2547 101.39 29.7655 101.39 29.2366Z" fill="white"/>
<path d="M123.191 24.9655C122.087 24.3837 121.021 24.0795 119.968 24.0795C118.915 24.0795 118.98 24.1986 118.633 24.4233C118.286 24.6481 118.119 24.9523 118.119 25.3357C118.119 25.7192 118.145 25.706 118.196 25.825C118.248 25.944 118.376 26.063 118.556 26.182C118.748 26.301 119.018 26.3936 119.378 26.4862C119.737 26.5787 120.212 26.6845 120.816 26.83C122.459 27.1738 123.692 27.7688 124.5 28.6415C125.309 29.5143 125.72 30.625 125.72 31.987C125.72 33.349 125.527 33.9176 125.129 34.7374C124.731 35.5572 124.179 36.2316 123.486 36.787C122.78 37.3424 121.933 37.7655 120.957 38.0696C119.968 38.3738 118.877 38.5324 117.696 38.5324C115.41 38.5324 113.163 37.8713 110.942 36.5357L113.112 32.1986C114.781 33.3754 116.36 33.9572 117.85 33.9572C119.339 33.9572 118.851 33.8382 119.198 33.587C119.544 33.3357 119.724 33.0184 119.724 32.6349C119.724 32.2514 119.699 32.225 119.647 32.0795C119.596 31.9341 119.48 31.8019 119.301 31.6696C119.121 31.5506 118.864 31.4316 118.53 31.3258C118.184 31.22 117.747 31.1143 117.195 31.0085C115.346 30.625 114.062 30.0564 113.33 29.2895C112.599 28.5357 112.226 27.4911 112.226 26.1556C112.226 24.82 112.406 24.3043 112.753 23.5242C113.099 22.744 113.613 22.0829 114.268 21.5407C114.922 20.9986 115.718 20.5754 116.656 20.2845C117.593 19.9936 118.62 19.8481 119.763 19.8481C121.624 19.8481 123.435 20.2184 125.194 20.9721L123.191 24.9787V24.9655Z" fill="white"/>
</svg>
