<svg width="187" height="48" viewBox="0 0 187 48" fill="none" xmlns="http://www.w3.org/2000/svg">
<g clip-path="url(#clip0_49_50)">
<path d="M12.1204 32.2534C7.53194 25.8244 9.02534 16.8977 15.4318 12.2932C20.3882 8.73122 27.0544 8.73122 32.0108 12.2932L38.7852 5.49502C28.6344 -2.82353 13.6571 -1.32489 5.36759 8.88326C-1.77477 17.6579 -1.77477 30.2552 5.36759 39.0299L12.142 32.2317L12.1204 32.2534Z" fill="white"/>
<path d="M35.4088 15.8118C39.9106 22.3059 38.309 31.2109 31.8593 35.7285C26.9678 39.1602 20.4531 39.1385 15.5617 35.7285L8.76562 42.5484C18.9381 50.8452 33.9154 49.3032 42.1832 39.0733C49.2823 30.3204 49.2823 17.7665 42.1832 9.01357L35.3872 15.8118H35.4088Z" fill="white"/>
<path d="M46.7716 42.6353C46.7716 41.9403 46.9015 41.2887 47.1612 40.6588C47.4209 40.029 47.7889 39.486 48.2434 39.0299C48.6979 38.5738 49.239 38.2045 49.8667 37.9439C50.4943 37.6833 51.1436 37.5529 51.8362 37.5529C52.5288 37.5529 53.1781 37.6833 53.8058 37.9439C54.4334 38.2045 54.9745 38.5738 55.429 39.0299C55.8836 39.486 56.2515 40.029 56.5112 40.6588C56.7709 41.2887 56.9008 41.9403 56.9008 42.6353C56.9008 43.3303 56.7709 43.9819 56.5112 44.6118C56.2515 45.2416 55.8836 45.7846 55.429 46.2407C54.9745 46.6968 54.4334 47.0661 53.8058 47.3267C53.1781 47.5873 52.5288 47.7176 51.8362 47.7176C51.1436 47.7176 50.4943 47.5873 49.8667 47.3267C49.239 47.0661 48.6979 46.6968 48.2434 46.2407C47.7889 45.7846 47.4209 45.2416 47.1612 44.6118C46.9015 43.9819 46.7716 43.3303 46.7716 42.6353Z" fill="white"/>
<path d="M73.9992 0.564705V46.8054H63.9566V0.564705H73.9992Z" fill="white"/>
<path d="M104.517 18.2226H114.624V46.8054H104.517V43.6344C102.374 46.3493 99.4736 47.6959 95.7942 47.6959C92.1148 47.6959 91.8118 47.305 90.0803 46.5448C88.3488 45.7846 86.8338 44.7204 85.5352 43.352C84.2366 41.9837 83.241 40.3548 82.5051 38.5086C81.7909 36.6624 81.4229 34.6208 81.4229 32.4271C81.4229 30.2335 81.7692 28.4525 82.4834 26.6063C83.176 24.7602 84.1716 23.1529 85.427 21.7846C86.6823 20.4163 88.1757 19.3303 89.9288 18.5267C91.6603 17.7231 93.5866 17.3321 95.7076 17.3321C99.2572 17.3321 102.201 18.5701 104.538 21.0679V18.2226H104.517ZM91.8551 32.4271C91.8551 33.3611 92.0282 34.2299 92.3529 35.0118C92.6775 35.8154 93.1321 36.5104 93.7164 37.0968C94.2792 37.6833 94.9718 38.1611 95.7726 38.4869C96.5734 38.8127 97.4391 38.9864 98.3481 38.9864C99.2572 38.9864 100.08 38.8127 100.88 38.4869C101.681 38.1611 102.352 37.6833 102.937 37.0968C103.499 36.5104 103.975 35.8154 104.322 35.0335C104.668 34.2516 104.841 33.4262 104.841 32.5357C104.841 31.6452 104.668 30.7982 104.322 29.9946C103.975 29.191 103.499 28.4959 102.937 27.9095C102.352 27.3231 101.681 26.8452 100.88 26.5195C100.08 26.1937 99.2355 26.0199 98.3481 26.0199C97.4608 26.0199 96.5517 26.1937 95.7726 26.5195C94.9718 26.8452 94.3008 27.3231 93.7164 27.9095C93.1321 28.4959 92.6992 29.1909 92.3529 29.9511C92.0282 30.7113 91.8551 31.5367 91.8551 32.4271Z" fill="white"/>
<path d="M133.173 0.564705V21.0679C135.532 18.5701 138.497 17.3321 142.046 17.3321C145.596 17.3321 146.094 17.7231 147.847 18.5267C149.6 19.3303 151.093 20.3946 152.349 21.7629C153.582 23.1095 154.556 24.7167 155.271 26.5629C155.963 28.409 156.331 30.3638 156.331 32.4489C156.331 34.5339 155.963 36.5538 155.249 38.4C154.535 40.2679 153.517 41.8751 152.219 43.2434C150.92 44.6118 149.405 45.6977 147.63 46.5014C145.877 47.305 143.973 47.6959 141.938 47.6959C138.237 47.6959 135.315 46.3493 133.173 43.6344V46.8054H123.13V0.564705H133.173ZM145.812 32.6009C145.812 31.7104 145.639 30.8633 145.315 30.0597C144.99 29.2561 144.514 28.5611 143.929 27.9747C143.345 27.3882 142.652 26.9104 141.873 26.5629C141.094 26.2154 140.25 26.0416 139.319 26.0416C138.389 26.0416 137.588 26.2154 136.83 26.5412C136.051 26.867 135.38 27.3448 134.796 27.9312C134.211 28.5176 133.757 29.2127 133.411 30.0163C133.064 30.8199 132.891 31.667 132.891 32.5575C132.891 33.448 133.064 34.295 133.389 35.0552C133.714 35.8371 134.19 36.5104 134.774 37.0968C135.359 37.6833 136.051 38.1394 136.852 38.4869C137.653 38.8344 138.497 39.0081 139.384 39.0081C140.272 39.0081 141.116 38.8344 141.873 38.5086C142.631 38.1828 143.323 37.705 143.908 37.1185C144.47 36.5321 144.947 35.8371 145.293 35.0552C145.639 34.2733 145.812 33.4697 145.812 32.6009Z" fill="white"/>
<path d="M182.563 25.5855C180.702 24.6299 178.905 24.1303 177.131 24.1303C175.356 24.1303 175.464 24.3258 174.88 24.695C174.295 25.0643 174.014 25.5638 174.014 26.1937C174.014 26.8235 174.057 26.8018 174.144 26.9973C174.23 27.1928 174.447 27.3882 174.75 27.5837C175.074 27.7792 175.529 27.9312 176.135 28.0833C176.741 28.2353 177.542 28.409 178.559 28.648C181.329 29.2127 183.407 30.19 184.771 31.6235C186.134 33.057 186.827 34.8814 186.827 37.1186C186.827 39.3557 186.502 40.2896 185.831 41.6362C185.16 42.9828 184.23 44.0905 183.061 45.0027C181.87 45.9149 180.442 46.61 178.797 47.1095C177.131 47.609 175.291 47.8697 173.3 47.8697C169.447 47.8697 165.659 46.7837 161.915 44.59L165.573 37.4661C168.387 39.3991 171.049 40.3547 173.559 40.3547C176.07 40.3547 175.248 40.1593 175.832 39.7466C176.416 39.3339 176.719 38.8127 176.719 38.1828C176.719 37.5529 176.676 37.5095 176.589 37.2706C176.503 37.0317 176.308 36.8145 176.005 36.5973C175.702 36.4018 175.269 36.2063 174.706 36.0326C174.122 35.8588 173.386 35.6851 172.456 35.5113C169.339 34.8814 167.175 33.9475 165.941 32.6878C164.707 31.4498 164.08 29.7339 164.08 27.5403C164.08 25.3466 164.383 24.4995 164.967 23.2181C165.551 21.9367 166.417 20.8507 167.521 19.9602C168.625 19.0697 169.967 18.3747 171.547 17.8968C173.127 17.419 174.858 17.1801 176.784 17.1801C179.923 17.1801 182.974 17.7882 185.939 19.0262L182.563 25.6072V25.5855Z" fill="white"/>
</g>
<defs>
<clipPath id="clip0_49_50">
<rect width="187" height="48" fill="white"/>
</clipPath>
</defs>
</svg>
