<svg width="32" height="32" viewBox="0 0 32 32" fill="none" xmlns="http://www.w3.org/2000/svg">
<path d="M5.33767 28.9231H9.91279C10.5065 28.9231 10.9897 28.44 10.9897 27.8463V22.7332C10.9897 22.1394 10.5065 21.6562 9.91279 21.6562H5.33767C4.74392 21.6562 4.26074 22.1394 4.26074 22.7332V27.8463C4.26074 28.44 4.74392 28.9231 5.33767 28.9231ZM5.18382 22.7332C5.18382 22.6484 5.25293 22.5793 5.33767 22.5793H9.91279C9.99752 22.5793 10.0666 22.6484 10.0666 22.7332V27.8463C10.0666 27.931 9.99752 28 9.91279 28H5.33767C5.25293 28 5.18382 27.931 5.18382 27.8463V22.7332Z" fill="#1E1F22"/>
<path d="M13.7127 17.0408C13.1189 17.0408 12.6357 17.5239 12.6357 18.1177V27.8461C12.6357 28.4398 13.1189 28.923 13.7127 28.923H18.2878C18.8815 28.923 19.3647 28.4398 19.3647 27.8461V18.1177C19.3647 17.5239 18.8815 17.0408 18.2878 17.0408H13.7127ZM18.4416 18.1177V27.8461C18.4416 27.9308 18.3725 27.9999 18.2878 27.9999H13.7127C13.6279 27.9999 13.5588 27.9308 13.5588 27.8461V18.1177C13.5588 18.033 13.6279 17.9638 13.7127 17.9638H18.2878C18.3725 17.9638 18.4416 18.033 18.4416 18.1177Z" fill="#1E1F22"/>
<path d="M22.0877 28.923H26.6628C27.2565 28.923 27.7397 28.4398 27.7397 27.8461V13.9639C27.7397 13.3701 27.2565 12.887 26.6628 12.887H22.0877C21.4939 12.887 21.0107 13.3701 21.0107 13.9639V27.8461C21.0107 28.4398 21.4939 28.923 22.0877 28.923ZM21.9338 13.9639C21.9338 13.8792 22.0029 13.81 22.0877 13.81H26.6628C26.7475 13.81 26.8166 13.8792 26.8166 13.9639V27.8461C26.8166 27.9308 26.7475 27.9999 26.6628 27.9999H22.0877C22.0029 27.9999 21.9338 27.9308 21.9338 27.8461V13.9639Z" fill="#1E1F22"/>
<path d="M30.3079 29.8461H2.92326C2.49899 29.8461 2.15403 29.5011 2.15403 29.0769V1.69225C2.15403 1.43744 1.9473 1.23071 1.6925 1.23071C1.43769 1.23071 1.23096 1.43744 1.23096 1.69225V29.0769C1.23096 30.0102 1.98997 30.7692 2.92326 30.7692H30.3079C30.5627 30.7692 30.7694 30.5624 30.7694 30.3076C30.7694 30.0528 30.5627 29.8461 30.3079 29.8461Z" fill="#1E1F22"/>
<path d="M3.36254 9.57416L4.15761 10.9543C4.3412 11.2731 4.72642 11.4188 5.07528 11.2977L5.89709 11.0144C6.31025 11.3509 6.76758 11.6141 7.25827 11.798L7.42323 12.6541C7.49294 13.0153 7.81055 13.2776 8.17834 13.2776H9.77299C10.1411 13.2776 10.4587 13.0153 10.5284 12.6538L10.6931 11.798C11.1847 11.6138 11.642 11.3503 12.0542 11.0144L12.8761 11.2977C13.2249 11.4188 13.6098 11.2731 13.7934 10.9546L14.5888 9.57416C14.7727 9.25505 14.7039 8.8485 14.425 8.60812L13.7661 8.03841C13.8487 7.53559 13.8533 7.00509 13.7658 6.4735L14.4268 5.89958C14.7045 5.6586 14.7727 5.25265 14.5891 4.93474L13.7937 3.55433C13.6098 3.23462 13.2234 3.08979 12.8749 3.21148L12.0509 3.49784C11.6408 3.1604 11.1847 2.89628 10.6931 2.71088L10.5284 1.85421C10.4587 1.49303 10.1411 1.23071 9.77299 1.23071H8.17834C7.81055 1.23071 7.49294 1.49303 7.42323 1.85421L7.25827 2.71088C6.76728 2.89598 6.31175 3.1601 5.9007 3.49784L5.07648 3.21148C4.72762 3.09069 4.3421 3.23462 4.15761 3.55403L3.36224 4.93444C3.17864 5.25295 3.24715 5.6589 3.5245 5.89958L4.18105 6.4693C4.09526 6.9907 4.09526 7.52124 4.18105 8.04291L3.526 8.60812C3.24745 8.8491 3.17894 9.25535 3.36254 9.57416ZM4.89379 4.12524L5.68435 4.39988C5.93796 4.48822 6.22522 4.43294 6.43225 4.25655C6.79673 3.94616 7.20659 3.70848 7.6498 3.55042C7.90611 3.45878 8.09661 3.23853 8.14709 2.97591L8.30544 2.15379H9.64619L9.80424 2.97681C9.85563 3.23973 10.0464 3.45938 10.3018 3.55042C10.7453 3.70878 11.1549 3.94616 11.5185 4.25595C11.7258 4.43324 12.0122 4.48883 12.2667 4.39988L13.0575 4.12524L13.7258 5.2857L13.0915 5.83618C12.8866 6.01527 12.7937 6.2839 12.843 6.55583C12.925 7.00021 12.9306 7.47921 12.8433 7.95667C12.794 8.2253 12.8899 8.50175 13.0942 8.67783L13.7255 9.2235L13.0569 10.3837L12.2703 10.1123C12.0149 10.024 11.7366 10.0757 11.5257 10.2532C11.1585 10.5633 10.7475 10.8004 10.303 10.9576C10.0458 11.0489 9.85472 11.2695 9.80424 11.533L9.64619 12.3545H8.30544L8.14739 11.5333C8.09691 11.2698 7.90581 11.0492 7.64829 10.9576C7.20448 10.8004 6.79312 10.5636 6.42534 10.2532C6.21831 10.079 5.93345 10.0249 5.68225 10.112L4.89439 10.3837L4.22582 9.2235L4.85232 8.68264C5.05635 8.50686 5.1525 8.23101 5.10382 7.96208C5.01849 7.4939 5.01849 7.01876 5.10382 6.54982C5.1534 6.27789 5.05965 6.00896 4.85412 5.83107L4.22522 5.2854L4.89379 4.12524Z" fill="#1E1F22"/>
<path d="M8.97574 9.68976C10.3189 9.68976 11.4114 8.59721 11.4114 7.25406C11.4114 5.91091 10.3189 4.81836 8.97574 4.81836C7.63259 4.81836 6.54004 5.91091 6.54004 7.25406C6.54004 8.59721 7.63259 9.68976 8.97574 9.68976ZM8.97574 5.74144C9.80987 5.74144 10.4884 6.41992 10.4884 7.25406C10.4884 8.08819 9.80987 8.76668 8.97574 8.76668C8.1416 8.76668 7.46312 8.08819 7.46312 7.25406C7.46312 6.41992 8.1416 5.74144 8.97574 5.74144Z" fill="#1E1F22"/>
<path d="M24.0172 10.7355C23.9532 10.9822 24.101 11.2343 24.3477 11.2986C24.6013 11.363 24.8479 11.2094 24.9108 10.9681L25.4995 8.70548C25.5599 8.4711 25.374 8.20492 25.1817 8.14858C25.116 8.12938 22.8441 7.53443 22.906 7.55374C22.6584 7.48973 22.4072 7.63757 22.3429 7.88426C22.2789 8.13096 22.4267 8.38306 22.6734 8.44737L23.7555 8.72873L4.86936 18.2962C4.64189 18.4113 4.55085 18.689 4.66623 18.9164C4.78192 19.1453 5.06144 19.2341 5.28642 19.1195L24.3485 9.46292L24.0172 10.7355Z" fill="#1E1F22"/>
</svg>
