<svg width="32" height="32" viewBox="0 0 32 32" fill="none" xmlns="http://www.w3.org/2000/svg">
<g clip-path="url(#clip0_58_280)">
<mask id="mask0_58_280" style="mask-type:luminance" maskUnits="userSpaceOnUse" x="0" y="0" width="32" height="32">
<path d="M32 0H0V32H32V0Z" fill="white"/>
</mask>
<g mask="url(#mask0_58_280)">
<path fill-rule="evenodd" clip-rule="evenodd" d="M16 10.511C14.8026 10.5112 13.6381 10.903 12.684 11.6264C11.7298 12.3499 11.0384 13.3655 10.715 14.5184C10.3917 15.6713 10.4541 16.8984 10.8928 18.0125C11.3315 19.1267 12.1224 20.0668 13.1451 20.6898C13.4229 20.8548 13.6525 21.09 13.8109 21.3718C13.9692 21.6536 14.0507 21.972 14.0472 22.2952V22.4125H17.9527C17.9527 22.0141 17.994 21.7194 18.1891 21.3719C18.3485 21.0909 18.5778 20.8559 18.8549 20.6897C19.8775 20.0668 20.6684 19.1266 21.1071 18.0125C21.5458 16.8983 21.6082 15.6713 21.2849 14.5184C20.9615 13.3655 20.2701 12.3499 19.316 11.6265C18.3619 10.903 17.1974 10.5113 16 10.511ZM16.375 27.4076V30.9985C16.375 31.098 16.3355 31.1933 16.2652 31.2637C16.1948 31.334 16.0995 31.3735 16 31.3735C15.9005 31.3735 15.8052 31.334 15.7348 31.2637C15.6645 31.1933 15.625 31.098 15.625 30.9985V27.4076H15.0244C14.9258 27.4075 14.8282 27.3879 14.7371 27.3499C14.6461 27.3119 14.5635 27.2563 14.494 27.1863C14.2245 26.9169 14.2727 26.6169 14.2727 26.2437H13.6722C13.3732 26.2431 13.0865 26.1241 12.875 25.9126C12.6635 25.7011 12.5444 25.4145 12.5437 25.1154V23.5409C12.5443 23.3075 12.6169 23.08 12.7518 22.8895C12.8866 22.699 13.077 22.5549 13.297 22.4769C13.297 22.1964 13.302 21.9956 13.1574 21.7382C13.0609 21.5692 12.9224 21.4281 12.7552 21.3284C11.5928 20.6207 10.6936 19.5522 10.1949 18.2859C9.69611 17.0196 9.62509 15.625 9.99263 14.3146C10.3602 13.0042 11.1461 11.8499 12.2307 11.0277C13.3152 10.2055 14.6388 9.76047 15.9998 9.76047C17.3608 9.76047 18.6844 10.2055 19.769 11.0277C20.8535 11.8499 21.6395 13.0042 22.007 14.3146C22.3745 15.625 22.3035 17.0196 21.8047 18.2859C21.306 19.5522 20.4068 20.6207 19.2444 21.3284C19.0763 21.4269 18.9375 21.5683 18.8422 21.7383C18.747 21.9082 18.6988 22.1004 18.7026 22.2952V22.4769C18.9226 22.5548 19.1132 22.6989 19.2481 22.8894C19.3831 23.0799 19.4558 23.3074 19.4562 23.5409V25.1154C19.4556 25.4145 19.3365 25.7011 19.125 25.9126C18.9135 26.1241 18.6268 26.2432 18.3277 26.2437H17.7272C17.7272 26.617 17.7762 26.9176 17.5067 27.1871C17.437 27.257 17.3542 27.3125 17.2631 27.3503C17.1719 27.3882 17.0742 27.4077 16.9754 27.4076H16.375ZM5.49681 18.0457C5.53263 18.0803 5.5612 18.1217 5.58085 18.1675C5.6005 18.2132 5.61085 18.2624 5.61128 18.3122C5.61171 18.362 5.60223 18.4114 5.58337 18.4575C5.56452 18.5036 5.53667 18.5454 5.50146 18.5806C5.46625 18.6159 5.42438 18.6437 5.3783 18.6626C5.33221 18.6814 5.28283 18.6909 5.23304 18.6905C5.18324 18.69 5.13404 18.6797 5.08829 18.66C5.04253 18.6404 5.00115 18.6118 4.96656 18.576L2.65575 16.2651C2.58545 16.1948 2.54596 16.0994 2.54596 16C2.54596 15.9006 2.58545 15.8052 2.65575 15.7349L4.9625 13.4279C4.99722 13.3926 5.03858 13.3646 5.0842 13.3454C5.12981 13.3261 5.17879 13.3161 5.22829 13.3159C5.27779 13.3157 5.32684 13.3253 5.37262 13.3442C5.41839 13.363 5.45998 13.3908 5.49498 13.4258C5.52998 13.4608 5.55771 13.5024 5.57656 13.5481C5.59541 13.5939 5.60501 13.643 5.60481 13.6925C5.60461 13.742 5.59461 13.7909 5.57539 13.8366C5.55616 13.8822 5.5281 13.9235 5.49281 13.9583L3.82612 15.625H8.12656C8.22602 15.625 8.3214 15.6645 8.39173 15.7348C8.46205 15.8052 8.50156 15.9005 8.50156 16C8.50156 16.0995 8.46205 16.1948 8.39173 16.2652C8.3214 16.3355 8.22602 16.375 8.12656 16.375H3.82612L5.49681 18.0457ZM26.5031 13.9543C26.4348 13.8835 26.397 13.7888 26.3978 13.6905C26.3987 13.5922 26.4381 13.4981 26.5076 13.4286C26.5772 13.359 26.6712 13.3196 26.7695 13.3187C26.8679 13.3179 26.9626 13.3557 27.0333 13.424L29.3441 15.7349C29.4144 15.8052 29.4539 15.9006 29.4539 16C29.4539 16.0994 29.4144 16.1948 29.3441 16.2651L27.0375 18.5721C26.967 18.6414 26.8719 18.6801 26.773 18.6797C26.674 18.6793 26.5793 18.6399 26.5093 18.5699C26.4394 18.5 26.3999 18.4052 26.3995 18.3063C26.3991 18.2073 26.4378 18.1123 26.5072 18.0417L28.1739 16.375H23.8734C23.774 16.375 23.6786 16.3355 23.6083 16.2652C23.5379 16.1948 23.4984 16.0995 23.4984 16C23.4984 15.9005 23.5379 15.8052 23.6083 15.7348C23.6786 15.6645 23.774 15.625 23.8734 15.625H28.1739L26.5031 13.9543ZM13.9543 5.49681C13.8835 5.56512 13.7888 5.60292 13.6905 5.60207C13.5922 5.60121 13.4981 5.56177 13.4286 5.49224C13.359 5.42272 13.3196 5.32866 13.3187 5.23034C13.3179 5.13201 13.3557 5.03729 13.424 4.96656L15.7349 2.65575C15.8052 2.58545 15.9006 2.54596 16 2.54596C16.0994 2.54596 16.1948 2.58545 16.2651 2.65575L18.5721 4.9625C18.6414 5.03302 18.6801 5.1281 18.6797 5.22702C18.6793 5.32595 18.6399 5.42071 18.5699 5.49066C18.5 5.56061 18.4052 5.60009 18.3063 5.60049C18.2073 5.6009 18.1123 5.56219 18.0417 5.49281L16.375 3.82612V8.12656C16.375 8.22602 16.3355 8.3214 16.2652 8.39173C16.1948 8.46205 16.0995 8.50156 16 8.50156C15.9005 8.50156 15.8052 8.46205 15.7348 8.39173C15.6645 8.3214 15.625 8.22602 15.625 8.12656V3.82612L13.9543 5.49681ZM1.90531 1.3765L10.6975 10.1679C10.7333 10.2025 10.7619 10.2438 10.7815 10.2896C10.8012 10.3354 10.8115 10.3846 10.812 10.4344C10.8124 10.4841 10.8029 10.5335 10.7841 10.5796C10.7652 10.6257 10.7374 10.6676 10.7021 10.7028C10.6669 10.738 10.6251 10.7658 10.579 10.7847C10.5329 10.8035 10.4835 10.813 10.4337 10.8126C10.3839 10.8122 10.3347 10.8018 10.289 10.7822C10.2432 10.7625 10.2018 10.7339 10.1672 10.6981L1.375 1.90675V4.26956C1.375 4.36902 1.33549 4.4644 1.26517 4.53473C1.19484 4.60505 1.09946 4.64456 1 4.64456C0.900544 4.64456 0.805161 4.60505 0.734835 4.53473C0.664509 4.4644 0.625 4.36902 0.625 4.26956V1.0015C0.625 0.902044 0.664509 0.806661 0.734835 0.736335C0.805161 0.666009 0.900544 0.6265 1 0.6265H4.2625C4.36196 0.6265 4.45734 0.666009 4.52767 0.736335C4.59799 0.806661 4.6375 0.902044 4.6375 1.0015C4.6375 1.10096 4.59799 1.19634 4.52767 1.26666C4.45734 1.33699 4.36196 1.3765 4.2625 1.3765H1.90531ZM1.3765 30.0947L10.1679 21.3025C10.2386 21.2342 10.3333 21.1964 10.4317 21.1972C10.53 21.1981 10.624 21.2375 10.6936 21.3071C10.7631 21.3766 10.8025 21.4707 10.8034 21.569C10.8042 21.6673 10.7664 21.762 10.6981 21.8328L1.90675 30.625H4.26956C4.36902 30.625 4.4644 30.6645 4.53473 30.7348C4.60505 30.8052 4.64456 30.9005 4.64456 31C4.64456 31.0995 4.60505 31.1948 4.53473 31.2652C4.4644 31.3355 4.36902 31.375 4.26956 31.375H1.0015C0.902044 31.375 0.806661 31.3355 0.736335 31.2652C0.666009 31.1948 0.6265 31.0995 0.6265 31V27.7375C0.6265 27.638 0.666009 27.5427 0.736335 27.4723C0.806661 27.402 0.902044 27.3625 1.0015 27.3625C1.10096 27.3625 1.19634 27.402 1.26666 27.4723C1.33699 27.5427 1.3765 27.638 1.3765 27.7375V30.0947ZM30.0947 30.6235L21.3025 21.8321C21.2342 21.7614 21.1964 21.6667 21.1972 21.5683C21.1981 21.47 21.2375 21.376 21.3071 21.3064C21.3766 21.2369 21.4707 21.1975 21.569 21.1966C21.6673 21.1958 21.762 21.2336 21.8328 21.3019L30.625 30.0933V27.7304C30.625 27.631 30.6645 27.5356 30.7348 27.4653C30.8052 27.3949 30.9005 27.3554 31 27.3554C31.0995 27.3554 31.1948 27.3949 31.2652 27.4653C31.3355 27.5356 31.375 27.631 31.375 27.7304V30.9985C31.375 31.098 31.3355 31.1933 31.2652 31.2637C31.1948 31.334 31.0995 31.3735 31 31.3735H27.7375C27.638 31.3735 27.5427 31.334 27.4723 31.2637C27.402 31.1933 27.3625 31.098 27.3625 30.9985C27.3625 30.899 27.402 30.8037 27.4723 30.7333C27.5427 30.663 27.638 30.6235 27.7375 30.6235H30.0947ZM30.6235 1.90531L21.8321 10.6975C21.7975 10.7333 21.7562 10.7619 21.7104 10.7815C21.6646 10.8012 21.6154 10.8115 21.5657 10.812C21.5159 10.8124 21.4665 10.8029 21.4204 10.7841C21.3743 10.7652 21.3324 10.7374 21.2972 10.7021C21.262 10.6669 21.2342 10.6251 21.2153 10.579C21.1965 10.5329 21.187 10.4835 21.1874 10.4337C21.1878 10.3839 21.1982 10.3347 21.2178 10.289C21.2375 10.2432 21.2661 10.2018 21.3019 10.1672L30.0933 1.375H27.7304C27.631 1.375 27.5356 1.33549 27.4653 1.26517C27.3949 1.19484 27.3554 1.09946 27.3554 1C27.3554 0.900544 27.3949 0.805161 27.4653 0.734835C27.5356 0.664509 27.631 0.625 27.7304 0.625H30.9985C31.098 0.625 31.1933 0.664509 31.2637 0.734835C31.334 0.805161 31.3735 0.900544 31.3735 1V4.2625C31.3735 4.36196 31.334 4.45734 31.2637 4.52767C31.1933 4.59799 31.098 4.6375 30.9985 4.6375C30.899 4.6375 30.8037 4.59799 30.7333 4.52767C30.663 4.45734 30.6235 4.36196 30.6235 4.2625V1.90531ZM17.3721 15.2053C17.3721 15.3048 17.3326 15.4002 17.2623 15.4705C17.192 15.5408 17.0966 15.5803 16.9971 15.5803C16.8977 15.5803 16.8023 15.5408 16.732 15.4705C16.6616 15.4002 16.6221 15.3048 16.6221 15.2053C16.6221 14.8399 15.9221 14.6221 15.5278 14.9366C15.4842 14.9672 15.4481 15.0073 15.4221 15.0538C15.3962 15.1003 15.381 15.1521 15.3778 15.2053C15.3778 15.9333 17.3721 15.2449 17.3721 16.7944C17.3721 17.3632 16.9163 17.7891 16.3749 17.9194V18.3832C16.3749 18.4826 16.3354 18.578 16.2651 18.6484C16.1948 18.7187 16.0994 18.7582 15.9999 18.7582C15.9005 18.7582 15.8051 18.7187 15.7348 18.6484C15.6644 18.578 15.6249 18.4826 15.6249 18.3832V17.9194C15.0836 17.7889 14.6278 17.3628 14.6278 16.7944C14.6278 16.695 14.6673 16.5996 14.7376 16.5293C14.808 16.4589 14.9034 16.4194 15.0028 16.4194C15.1023 16.4194 15.1977 16.4589 15.268 16.5293C15.3383 16.5996 15.3778 16.695 15.3778 16.7944C15.3778 17.1599 16.0778 17.3776 16.4721 17.0632C16.5157 17.0325 16.5518 16.9925 16.5778 16.9459C16.6038 16.8994 16.6189 16.8476 16.6221 16.7944C16.6221 16.0664 14.6279 16.7549 14.6279 15.2053C14.6279 14.6366 15.0836 14.2106 15.625 14.0803V13.6166C15.625 13.5171 15.6645 13.4217 15.7348 13.3514C15.8052 13.2811 15.9005 13.2416 16 13.2416C16.0995 13.2416 16.1948 13.2811 16.2652 13.3514C16.3355 13.4217 16.375 13.5171 16.375 13.6166V14.0803C16.9164 14.2109 17.3721 14.6369 17.3721 15.2053ZM15.0244 26.6575H16.9756L16.9772 26.6559V26.2434H15.0228L15.0236 26.6564L15.0244 26.6575ZM13.6722 25.4937H18.3277C18.4279 25.4932 18.5238 25.4532 18.5946 25.3824C18.6655 25.3116 18.7055 25.2157 18.7061 25.1155V23.5409C18.7055 23.4407 18.6655 23.3448 18.5947 23.274C18.5238 23.2032 18.4279 23.1631 18.3277 23.1626H13.6722C13.5721 23.1632 13.4762 23.2032 13.4054 23.274C13.3345 23.3448 13.2945 23.4407 13.2939 23.5409V25.1154C13.2944 25.2156 13.3345 25.3115 13.4053 25.3823C13.4761 25.4532 13.5721 25.4932 13.6722 25.4937Z" fill="#1E1F22"/>
</g>
</g>
<defs>
<clipPath id="clip0_58_280">
<rect width="32" height="32" fill="white"/>
</clipPath>
</defs>
</svg>
