<svg width="32" height="32" viewBox="0 0 32 32" fill="none" xmlns="http://www.w3.org/2000/svg">
<g clip-path="url(#clip0_58_290)">
<mask id="mask0_58_290" style="mask-type:luminance" maskUnits="userSpaceOnUse" x="0" y="0" width="32" height="32">
<path d="M32 0H0V32H32V0Z" fill="white"/>
</mask>
<g mask="url(#mask0_58_290)">
<path fill-rule="evenodd" clip-rule="evenodd" d="M8.70768 27.8217L9.1885 28.6712C9.18875 28.6716 9.18894 28.672 9.18919 28.6725C9.54935 29.313 9.32102 30.1305 8.68403 30.4903L7.09752 31.3895C7.09702 31.3898 7.09652 31.39 7.09595 31.3903C6.45539 31.7505 5.63794 31.5222 5.27804 30.8849L0.6125 22.641C0.249143 22 0.477473 21.1818 1.11515 20.8216L2.70354 19.9223C3.34103 19.5622 4.15917 19.7884 4.52215 20.4259L4.52284 20.4271L4.91945 21.1279L9.12682 18.6919C10.3605 17.9784 11.6202 17.5088 12.9752 17.9488C14.3128 18.3825 16.4965 19.317 18.7251 19.7197C18.7471 19.7236 18.769 19.7292 18.7904 19.7361C19.8828 20.0898 20.5484 21.1934 20.2501 22.3027C20.1907 22.5239 20.1063 22.7247 19.9987 22.9027C20.2947 22.8338 20.5828 22.7195 20.8652 22.555L26.5223 19.2603C28.5353 18.0875 29.8759 18.2038 30.6356 18.7135C31.2812 19.1467 31.5791 19.8868 31.5599 20.6129C31.5404 21.3458 31.1932 22.0468 30.6185 22.4008L20.3533 28.721C19.2881 29.3784 18.1213 29.5324 16.9125 29.21L9.66649 27.268L8.70768 27.8217ZM5.41394 22.0016L8.21319 26.9479L9.34455 26.2947C9.45987 26.2281 9.59691 26.21 9.72553 26.2445L17.1714 28.24C18.1038 28.4887 19.0043 28.3737 19.8261 27.8666L30.092 21.546C30.3731 21.3728 30.5223 21.0263 30.5518 20.67C30.5969 20.1226 30.3379 19.5196 29.6608 19.3778C29.0521 19.2502 28.194 19.4482 27.0276 20.1277L21.3706 23.4224C20.476 23.9437 19.5382 24.0875 18.5163 23.9248C18.5157 23.9247 18.5152 23.9247 18.5146 23.9245L17.8132 23.8104C17.813 23.8103 17.8133 23.8104 17.8132 23.8104C17.8064 23.8093 17.799 23.808 17.7923 23.8066C17.792 23.8065 17.7925 23.8066 17.7923 23.8066C16.5168 23.5447 15.3331 23.1592 14.0204 22.8064C13.7529 22.7345 13.594 22.4589 13.6659 22.1914C13.7378 21.9239 14.0134 21.765 14.281 21.8369C15.5664 22.1824 16.7251 22.5612 17.9732 22.8188C18.6409 22.8938 19.1271 22.6137 19.2805 22.0423C19.4364 21.4626 19.0746 20.8987 18.5103 20.701C16.2442 20.2858 14.0258 19.3448 12.6655 18.9037C11.5916 18.555 10.6072 18.9955 9.62953 19.5609L5.41394 22.0016ZM3.64961 20.9224C3.55901 20.7646 3.35597 20.7069 3.19779 20.7962L1.60977 21.6953C1.4519 21.7845 1.396 21.9874 1.48591 22.146L6.15176 30.3904C6.24117 30.5487 6.44453 30.6046 6.60359 30.5155L8.18903 29.6168C8.34734 29.5274 8.4035 29.3238 8.31427 29.1648L3.64961 20.9224ZM3.00196 21.8193C3.36205 21.7657 3.69642 22.0144 3.75001 22.3745C3.80146 22.7345 3.5528 23.0711 3.19277 23.1225C2.83267 23.1761 2.4983 22.9253 2.44472 22.5652C2.39327 22.2051 2.64186 21.8708 3.00196 21.8193ZM14.508 13.0292C13.2227 12.2162 11.7537 11.54 10.1029 10.9976L9.9004 10.9405L9.76243 11.4301C9.57614 12.0912 8.71515 12.2403 8.31565 11.6913L5.99961 8.50638C5.68463 8.0767 5.85473 7.47309 6.34772 7.27105L9.98586 5.76385C10.6133 5.50421 11.2697 6.08096 11.0834 6.74205L10.9454 7.23165L11.0803 7.25342C12.74 7.78349 14.249 8.42644 15.609 9.18045C15.609 7.74936 15.609 5.06154 15.609 5.06154H15.1293C14.4501 5.06154 14.0772 4.28194 14.4927 3.75444L16.8602 0.750015C17.1847 0.334956 17.8049 0.334956 18.1295 0.750015L20.497 3.75444C20.9125 4.28194 20.5396 5.06154 19.8604 5.06154H19.3806V9.17982C20.7409 8.42606 23.6895 7.3316 23.9308 7.26358L24.0442 7.23165L23.9062 6.74205C23.72 6.08096 24.3765 5.50421 25.0038 5.76385L28.642 7.27105C29.1349 7.47309 29.305 8.0767 28.99 8.50638L26.6741 11.6913C26.2745 12.2403 25.4135 12.0912 25.2273 11.4301L25.0893 10.9405C25.0893 10.9405 24.8867 10.9975 24.8863 10.9977C23.2352 11.5403 21.7662 12.2169 20.4813 13.0299C22.1722 14.9366 23.3934 17.1926 24.1486 19.7935C24.2259 20.0596 24.0726 20.3383 23.8065 20.4155C23.5405 20.4928 23.2618 20.3395 23.1845 20.0735C22.4597 17.5772 21.2822 15.4165 19.6432 13.5987C19.1271 13.974 18.6452 14.3747 18.1974 14.8008C19.6602 16.4045 20.7225 18.3065 21.3787 20.5115C21.4577 20.7769 21.3063 21.0567 21.0408 21.1357C20.7753 21.2148 20.4955 21.0633 20.4165 20.7978C19.8112 18.7639 18.8371 17.0056 17.4951 15.5209C16.7825 16.309 16.1732 17.1742 15.6681 18.1175C15.5372 18.3617 15.2328 18.4538 14.9886 18.323C14.7443 18.1923 14.6522 17.8878 14.783 17.6436C16.6835 14.0946 19.9515 11.5604 24.5837 10.0404C24.5904 10.0382 25.3002 9.83808 25.3002 9.83808C25.567 9.76285 25.8442 9.9182 25.9194 10.1851L26.0894 10.7883L28.0386 8.10776L24.9767 6.8393L25.1466 7.44253C25.2218 7.70932 25.0665 7.9866 24.7997 8.06176L24.2031 8.22992C24.1683 8.23971 24.1326 8.24573 24.0965 8.2478C18.7968 9.96583 15.1114 12.8844 13.0178 16.9888C12.892 17.2355 12.5894 17.3337 12.3426 17.2078C12.0958 17.0819 11.9977 16.7794 12.1235 16.5326C12.7738 15.2578 13.5681 14.0895 14.508 13.0292ZM16.6129 9.77414C16.9149 9.96451 17.2086 10.161 17.4941 10.3635C17.7801 10.1607 18.0743 9.96394 18.3767 9.77332V4.55958C18.3767 4.28231 18.6015 4.05762 18.8787 4.05762H19.4578L17.4948 1.56664L15.5319 4.05762H16.111C16.3882 4.05762 16.6129 4.28231 16.6129 4.55958V9.77414ZM16.65 10.999C15.0065 9.87642 13.0881 8.95933 10.8932 8.2478C10.8571 8.24573 10.19 8.06176 10.19 8.06176C9.92318 7.9866 9.76783 7.70932 9.84299 7.44253L10.013 6.8393L6.95101 8.10776L8.90025 10.7883L9.07022 10.1851C9.14539 9.9182 9.42266 9.76285 9.68952 9.83808L10.3856 10.0342C10.3925 10.0361 10.3992 10.0382 10.4059 10.0404C12.2154 10.6341 13.8164 11.3829 15.2086 12.2858C15.6598 11.8352 16.1403 11.4062 16.65 10.999Z" fill="#1E1F22"/>
</g>
</g>
<defs>
<clipPath id="clip0_58_290">
<rect width="32" height="32" fill="white"/>
</clipPath>
</defs>
</svg>
